<?xml version="1.0" encoding="UTF-8"?>
<svg version="1.1" xmlns="http://www.w3.org/2000/svg" width="316" height="105">
<path d="M0 0 C104.28 0 208.56 0 316 0 C316 34.65 316 69.3 316 105 C211.72 105 107.44 105 0 105 C0 70.35 0 35.7 0 0 Z " fill="#FCFEFE" transform="translate(0,0)"/>
<path d="M0 0 C1.12535156 0.41894531 2.25070313 0.83789062 3.41015625 1.26953125 C13.63655966 5.34365522 22.75178186 11.08606604 32 17 C31.34 17.33 30.68 17.66 30 18 C28.09884184 17.11036919 26.20303759 16.20716686 24.33886719 15.24243164 C-23.20445836 -9.35577736 -72.28576921 0.31486338 -121.01843262 14.59130859 C-122.91516475 15.14683978 -124.81303023 15.69849692 -126.7109375 16.25 C-127.7839209 16.56453125 -128.8569043 16.8790625 -129.96240234 17.203125 C-132.96354735 17.99043711 -135.93308981 18.54045174 -139 19 C-130.69612876 20.907613 -122.34883933 21.83875455 -113.875 22.625 C-113.1803363 22.6907019 -112.48567261 22.75640381 -111.7699585 22.82409668 C-90.83400635 26.04636612 -90.83400635 26.04636612 -71 23 C-72.13499394 19.70851757 -72.99283376 19.0040131 -76.125 17.25 C-77.07375 16.8375 -78.0225 16.425 -79 16 C-75.42021604 14.86702476 -72.1741211 14.94131794 -68.4375 15.05078125 C-67.46109558 15.07792709 -67.46109558 15.07792709 -66.46496582 15.10562134 C-64.30972337 15.16805862 -62.15491539 15.23968683 -60 15.3125 C-59.25435791 15.33611603 -58.50871582 15.35973206 -57.74047852 15.38406372 C-40.80943886 15.92275821 -23.89960406 16.80757166 -6.99420166 17.87432861 C-5.12693899 17.99200051 -3.25951943 18.10717535 -1.39208984 18.22216797 C15.28045515 19.27468466 31.78081797 21.22623095 48.32373047 23.50317383 C50.82080981 23.84063939 53.31998599 24.16286856 55.82080078 24.47143555 C63.85316308 25.47509619 71.64447988 26.86275312 79.5 28.8125 C80.57588379 29.07675781 81.65176758 29.34101562 82.76025391 29.61328125 C115.8302932 37.88700631 115.8302932 37.88700631 125 51 C125 51.33 125 51.66 125 52 C102.89 52 80.78 52 58 52 C57.01 49.36 56.02 46.72 55 44 C52.00270009 40.34267291 48.10056853 38.74582596 43.5 38 C37.64912781 37.66168426 33.67453252 39.62316215 29.1875 43.3125 C26.51721513 46.26961331 26.51721513 46.26961331 25 52 C-11.96 52 -48.92 52 -87 52 C-87.99 46.555 -87.99 46.555 -89 41 C-92.23153578 34.87122524 -96.47131574 31.23349725 -103 29 C-110.06529121 28.09175629 -116.18914413 28.69468406 -122 33 C-126.44329993 37.23927086 -129.08515634 41.63177189 -129.625 47.75 C-129.69976562 48.54921875 -129.77453125 49.3484375 -129.8515625 50.171875 C-129.90054688 50.77515625 -129.94953125 51.3784375 -130 52 C-134.94790177 52.0493651 -139.89566083 52.08570269 -144.84375 52.10986328 C-146.52769466 52.11993317 -148.21162179 52.13358988 -149.89550781 52.15087891 C-152.31319501 52.17508426 -154.73065143 52.18647296 -157.1484375 52.1953125 C-157.9036972 52.20563507 -158.65895691 52.21595764 -159.43710327 52.22659302 C-161.2929398 52.22699318 -163.1481928 52.12222716 -165 52 C-167 50 -167 50 -167.265625 47.96875 C-167.26046875 47.1540625 -167.2553125 46.339375 -167.25 45.5 C-167.25515625 44.7059375 -167.2603125 43.911875 -167.265625 43.09375 C-167.03391625 40.39502462 -166.579327 37.98664458 -165.9921875 35.3515625 C-164.83650808 29.81874729 -164.77215025 24.50800169 -164.875 18.875 C-164.88853516 17.44027344 -164.88853516 17.44027344 -164.90234375 15.9765625 C-164.92560173 13.65076475 -164.95827787 11.32552706 -165 9 C-164.13503906 9.32097656 -163.27007812 9.64195313 -162.37890625 9.97265625 C-144.70778372 15.34549466 -123.42975881 5.8644019 -106.61938477 0.95874023 C-98.73776496 -1.30787997 -90.8430177 -3.27371697 -82.8125 -4.9375 C-81.37136841 -5.23624023 -81.37136841 -5.23624023 -79.90112305 -5.54101562 C-53.37405645 -10.82246507 -25.31865395 -9.67821493 0 0 Z " fill="#056197" transform="translate(178,27)"/>
<path d="M0 0 C5.28 0.33 10.56 0.66 16 1 C16 1.33 16 1.66 16 2 C14.02 2 12.04 2 10 2 C10.495 2.99 10.495 2.99 11 4 C11.039992 5.99960012 11.04346799 8.00047242 11 10 C7.48575476 11.05955248 4.14344126 11.19998141 0.484375 11.31640625 C-0.76601562 11.35830078 -2.01640625 11.40019531 -3.3046875 11.44335938 C-5.25761719 11.50233398 -5.25761719 11.50233398 -7.25 11.5625 C-9.22613281 11.62727539 -9.22613281 11.62727539 -11.2421875 11.69335938 C-14.49468788 11.79941917 -17.74726392 11.90148024 -21 12 C-18.69 12.33 -16.38 12.66 -14 13 C-14 13.99 -14 14.98 -14 16 C-12.27773504 19.24849977 -12.27773504 19.24849977 -9 20 C-8.67 21.98 -8.34 23.96 -8 26 C-8.66 26 -9.32 26 -10 26 C-10.598125 25.0925 -11.19625 24.185 -11.8125 23.25 C-15.04022887 18.45451711 -18.51700416 15.76129755 -24 14 C-27.58430945 13.75917126 -27.58430945 13.75917126 -31.3125 13.875 C-32.56675781 13.89304687 -33.82101563 13.91109375 -35.11328125 13.9296875 C-36.54220703 13.96449219 -36.54220703 13.96449219 -38 14 C-35.8614515 11.8614515 -34.86724686 11.57344937 -32 11 C-33.32 10.34 -34.64 9.68 -36 9 C-34.73816895 9.00523682 -33.47633789 9.01047363 -32.17626953 9.01586914 C-27.50602932 9.03393458 -22.83579221 9.04543769 -18.16552734 9.05493164 C-16.14208457 9.05996831 -14.11864544 9.06679789 -12.09521484 9.07543945 C-9.19107157 9.08753412 -6.28697631 9.09323488 -3.3828125 9.09765625 C-2.02024826 9.10539818 -2.02024826 9.10539818 -0.63015747 9.11329651 C0.63092331 9.11340981 0.63092331 9.11340981 1.91748047 9.11352539 C2.65916473 9.115746 3.400849 9.11796661 4.16500854 9.12025452 C6.09774915 9.11269473 6.09774915 9.11269473 8 8 C6.86500606 4.70851757 6.00716624 4.0040131 2.875 2.25 C1.92625 1.8375 0.9775 1.425 0 1 C0 0.67 0 0.34 0 0 Z " fill="#105782" transform="translate(99,42)"/>
<path d="M0 0 C10.69753587 0.72981394 21.34196822 1.84078429 32 3 C31.01 4.485 31.01 4.485 30 6 C26.375 6.1875 26.375 6.1875 23 6 C22.66574265 8.37374861 22.66574265 8.37374861 23 11 C24.94009522 12.70532323 24.94009522 12.70532323 27 14 C27 14.66 27 15.32 27 16 C22.91927658 15.44855089 22.08669204 15.08669204 19 12 C16.69 13.98 14.38 15.96 12 18 C13.03153759 13.87384964 14.28404014 12.1540179 17 9 C15.27773504 5.75150023 15.27773504 5.75150023 12 5 C12 4.34 12 3.68 12 3 C10.948125 2.855625 9.89625 2.71125 8.8125 2.5625 C5.84539451 2.12473034 2.93205634 1.62195134 0 1 C0 0.67 0 0.34 0 0 Z " fill="#196B9E" transform="translate(193,47)"/>
<path d="M0 0 C15.54416265 4.0830289 28.57686272 11.41634137 42 20 C41.01 20.495 41.01 20.495 40 21 C38.34619141 20.38256836 38.34619141 20.38256836 36.3515625 19.33984375 C35.60237549 18.96077881 34.85318848 18.58171387 34.08129883 18.19116211 C32.86543091 17.57059937 32.86543091 17.57059937 31.625 16.9375 C21.72793017 12.03833061 11.64064908 8.85918389 1 6 C0.67 4.02 0.34 2.04 0 0 Z " fill="#226192" transform="translate(168,24)"/>
<path d="M0 0 C0.99 0 1.98 0 3 0 C3 0.66 3 1.32 3 2 C5.60375251 3.60230924 7.00706115 4 10.125 4 C11.07375 4 12.0225 4 13 4 C13.66 4.66 14.32 5.32 15 6 C6.01404305 8.42406618 -2.64942777 10.60378931 -12 11 C-12.33 10.01 -12.66 9.02 -13 8 C-11.68 7.67 -10.36 7.34 -9 7 C-9 6.34 -9 5.68 -9 5 C-5.7 4.34 -2.4 3.68 1 3 C0.67 2.01 0.34 1.02 0 0 Z " fill="#1C6C9D" transform="translate(74,27)"/>
<path d="M0 0 C0 0.99 0 1.98 0 3 C-1.0725 3.12375 -2.145 3.2475 -3.25 3.375 C-7.42519557 4.02287328 -7.42519557 4.02287328 -11 6 C-11.33 7.32 -11.66 8.64 -12 10 C-17.61 9.34 -23.22 8.68 -29 8 C-25.40849159 5.60566106 -21.89590706 4.90713864 -17.75 4 C-16.26525275 3.66832871 -14.78087211 3.33501169 -13.296875 3 C-12.57693359 2.83757813 -11.85699219 2.67515625 -11.11523438 2.5078125 C-9.08230263 2.01975871 -7.08350339 1.4651839 -5.078125 0.875 C-2 0 -2 0 0 0 Z " fill="#DDF3F9" transform="translate(65,39)"/>
<path d="M0 0 C24.9175209 -0.23680854 24.9175209 -0.23680854 32 1 C32.66 1.66 33.32 2.32 34 3 C28.6172086 4.75935918 22.91496901 3.7249395 17.36303711 3.33081055 C15.30967472 3.18730254 13.2557128 3.06090454 11.20117188 2.93554688 C9.91404297 2.84724609 8.62691406 2.75894531 7.30078125 2.66796875 C6.11653564 2.58828857 4.93229004 2.5086084 3.7121582 2.42651367 C2.817146 2.28576416 1.92213379 2.14501465 1 2 C0.67 1.34 0.34 0.68 0 0 Z " fill="#085483" transform="translate(133,44)"/>
<path d="M0 0 C0.495 1.485 0.495 1.485 1 3 C3.475 3.495 3.475 3.495 6 4 C2.71919734 5.07340989 0.62524574 4.86338595 -2.70703125 4.0703125 C-10.34066131 2.55958245 -17.94761639 2.78336282 -25.6875 2.875 C-27.1790304 2.88505708 -28.67056742 2.89417808 -30.16210938 2.90234375 C-33.77487974 2.92412456 -37.38739593 2.9585015 -41 3 C-40.67 2.34 -40.34 1.68 -40 1 C-35.58924441 0.8559378 -31.17843772 0.71358717 -26.76757812 0.57275391 C-25.27016749 0.52471037 -23.77277123 0.47621662 -22.27539062 0.42724609 C-20.11071427 0.35653333 -17.94598968 0.28749368 -15.78125 0.21875 C-14.48251953 0.17685547 -13.18378906 0.13496094 -11.84570312 0.09179688 C-7.89405817 -0.00252883 -3.95251813 -0.01537945 0 0 Z " fill="#E2F6FC" transform="translate(154,17)"/>
<path d="M0 0 C-0.61875 0.0825 -1.2375 0.165 -1.875 0.25 C-4.69860516 1.24656653 -4.71507901 2.35981564 -6 5 C-9.77105313 9.88876218 -13.94498962 14.43851541 -19 18 C-19.99 17.67 -20.98 17.34 -22 17 C-21.319375 16.505 -20.63875 16.01 -19.9375 15.5 C-15.28379831 11.53940281 -11.4598474 6.90591188 -7.75 2.0625 C-5.14834906 -1.00373146 -3.79794945 -1.26598315 0 0 Z " fill="#0A6DA2" transform="translate(267,59)"/>
<path d="M0 0 C0.33 0.99 0.66 1.98 1 3 C0.01 3.33 -0.98 3.66 -2 4 C-2.27585937 4.55171875 -2.55171875 5.1034375 -2.8359375 5.671875 C-4.51584939 9.03169878 -7.07141194 11.54086343 -9.625 14.25 C-10.140625 14.80429688 -10.65625 15.35859375 -11.1875 15.9296875 C-12.45425035 17.2902712 -13.72657815 18.64565837 -15 20 C-15.66 19.67 -16.32 19.34 -17 19 C-17 18.34 -17 17.68 -17 17 C-16.34 17 -15.68 17 -15 17 C-14.7421875 16.41734375 -14.484375 15.8346875 -14.21875 15.234375 C-12.90165983 12.8197097 -11.44911616 11.18259823 -9.5 9.25 C-8.8915625 8.63640625 -8.283125 8.0228125 -7.65625 7.390625 C-6 6 -6 6 -4 6 C-3.34 4.68 -2.68 3.36 -2 2 C-1.34 2 -0.68 2 0 2 C0 1.34 0 0.68 0 0 Z " fill="#0D6EA6" transform="translate(44,58)"/>
<path d="M0 0 C2.66410618 0.43919142 5.31205657 0.72193689 8 1 C8 1.33 8 1.66 8 2 C-1.39355936 2.14256667 -10.64072209 1.72492332 -20 1 C-19.67 0.34 -19.34 -0.32 -19 -1 C-11.96857439 -2.3787109 -6.73230573 -2.28898395 0 0 Z " fill="#D3EDF5" transform="translate(157,43)"/>
<path d="M0 0 C0 0.33 0 0.66 0 1 C-3.65310599 2.2743393 -7.19694537 3.2994373 -11 4 C-13.39914051 4.56450365 -15.65570833 5.21856944 -18 6 C-18.66 5.67 -19.32 5.34 -20 5 C-20 4.34 -20 3.68 -20 3 C-13.16914355 0.55833216 -7.2484945 -0.41640288 0 0 Z " fill="#115E8D" transform="translate(97,24)"/>
<path d="M0 0 C1.98 0.66 3.96 1.32 6 2 C5.01 3.485 5.01 3.485 4 5 C-9.86 4.01 -9.86 4.01 -24 3 C-24 2.67 -24 2.34 -24 2 C-20.93744039 1.9729509 -17.8751214 1.95313702 -14.8125 1.9375 C-13.94818359 1.92912109 -13.08386719 1.92074219 -12.19335938 1.91210938 C-7.99713231 1.89603188 -4.09063114 1.92440962 0 3 C0 2.01 0 1.02 0 0 Z " fill="#D2EAF5" transform="translate(207,44)"/>
<path d="M0 0 C0 0.33 0 0.66 0 1 C-3.07617188 1.29296875 -3.07617188 1.29296875 -6.15234375 1.5859375 C-6.76207031 1.72257812 -7.37179688 1.85921875 -8 2 C-8.33 2.66 -8.66 3.32 -9 4 C-11.72265625 4.4140625 -11.72265625 4.4140625 -15.0625 4.625 C-16.16722656 4.69976563 -17.27195312 4.77453125 -18.41015625 4.8515625 C-19.26480469 4.90054687 -20.11945313 4.94953125 -21 5 C-21.33 4.01 -21.66 3.02 -22 2 C-19.03 2.495 -19.03 2.495 -16 3 C-16 2.34 -16 1.68 -16 1 C-10.63904667 -0.12862175 -5.44693314 -0.09688221 0 0 Z " fill="#13689C" transform="translate(145,19)"/>
<path d="M0 0 C0.89203125 0.11085938 1.7840625 0.22171875 2.703125 0.3359375 C3.37859375 0.43132813 4.0540625 0.52671875 4.75 0.625 C3.76 2.11 3.76 2.11 2.75 3.625 C2.75 4.285 2.75 4.945 2.75 5.625 C2.09 6.285 1.43 6.945 0.75 7.625 C-1.375 7.25 -1.375 7.25 -3.25 6.625 C-2.92 5.635 -2.59 4.645 -2.25 3.625 C-4.56 2.965 -6.87 2.305 -9.25 1.625 C-5.9353333 -0.40407167 -3.8184021 -0.50242133 0 0 Z " fill="#186797" transform="translate(100.25,22.375)"/>
<path d="M0 0 C0 0.66 0 1.32 0 2 C0.61875 2.309375 1.2375 2.61875 1.875 2.9375 C3.25 3.625 4.625 4.3125 6 5 C6 5.66 6 6.32 6 7 C1.91927658 6.44855089 1.08669204 6.08669204 -2 3 C-4.31 4.98 -6.62 6.96 -9 9 C-7.9110265 4.644106 -5.20152539 0 0 0 Z " fill="#106FA5" transform="translate(214,56)"/>
<path d="M0 0 C-1 2 -1 2 -3.5625 3.0625 C-6.21710954 3.78648442 -8.48384723 4.21566751 -11.1875 4.5 C-15.06259711 4.72265676 -15.06259711 4.72265676 -18 7 C-18.66 6.01 -19.32 5.02 -20 4 C-17.79471728 3.32331051 -15.58561391 2.65906502 -13.375 2 C-12.14523438 1.62875 -10.91546875 1.2575 -9.6484375 0.875 C-6.26153174 0.06272281 -3.46145571 -0.17041013 0 0 Z " fill="#DDF2F7" transform="translate(101,30)"/>
<path d="M0 0 C3.3 0.99 6.6 1.98 10 3 C9.34 4.32 8.68 5.64 8 7 C5.69 6.67 3.38 6.34 1 6 C0.67 4.02 0.34 2.04 0 0 Z " fill="#1D6496" transform="translate(168,24)"/>
<path d="M0 0 C1.4540625 0.0309375 1.4540625 0.0309375 2.9375 0.0625 C2.9375 1.0525 2.9375 2.0425 2.9375 3.0625 C1.9475 3.3925 0.9575 3.7225 -0.0625 4.0625 C-0.0625 3.4025 -0.0625 2.7425 -0.0625 2.0625 C-0.7225 2.0625 -1.3825 2.0625 -2.0625 2.0625 C-2.0625 3.0525 -2.0625 4.0425 -2.0625 5.0625 C-8.21484375 4.4765625 -8.21484375 4.4765625 -10.0625 4.0625 C-10.3925 3.4025 -10.7225 2.7425 -11.0625 2.0625 C-9.928125 1.918125 -8.79375 1.77375 -7.625 1.625 C-3.97252634 1.04829363 -3.54680005 0.07238367 0 0 Z " fill="#03659D" transform="translate(95.0625,24.9375)"/>
<path d="M0 0 C1.32 0.99 2.64 1.98 4 3 C3 6 3 6 1 7 C-0.54023996 7.06950541 -2.08334988 7.08452357 -3.625 7.0625 C-4.85089844 7.04896484 -4.85089844 7.04896484 -6.1015625 7.03515625 C-7.04128906 7.01775391 -7.04128906 7.01775391 -8 7 C-8 6.67 -8 6.34 -8 6 C-6.35 6 -4.7 6 -3 6 C-2.690625 5.38125 -2.38125 4.7625 -2.0625 4.125 C-1.375 2.75 -0.6875 1.375 0 0 Z " fill="#E1F5FA" transform="translate(104,45)"/>
<path d="M0 0 C-0.99 0.495 -0.99 0.495 -2 1 C-2.268125 1.66 -2.53625 2.32 -2.8125 3 C-4 5 -4 5 -6.625 5.75 C-7.800625 5.87375 -7.800625 5.87375 -9 6 C-9.33 5.01 -9.66 4.02 -10 3 C-8.68 2.67 -7.36 2.34 -6 2 C-6 1.34 -6 0.68 -6 0 C-3.50907189 -1.24546405 -2.58919267 -0.7767578 0 0 Z " fill="#04629B" transform="translate(71,32)"/>
<path d="M0 0 C0.515625 0.37125 1.03125 0.7425 1.5625 1.125 C-1.78689881 3.15058881 -4.30712551 3.34238987 -8.1875 3.25 C-9.17234375 3.23195313 -10.1571875 3.21390625 -11.171875 3.1953125 C-12.29335938 3.16050781 -12.29335938 3.16050781 -13.4375 3.125 C-4.36898576 -1.56835386 -4.36898576 -1.56835386 0 0 Z " fill="#1C6091" transform="translate(56.4375,33.875)"/>
<path d="M0 0 C5.59305858 1.39826464 9.71990921 4.24087492 14 8 C14.33 8.66 14.66 9.32 15 10 C9.25 8.375 9.25 8.375 7 5 C4.94074861 4.27617533 4.94074861 4.27617533 3 4 C3 3.34 3 2.68 3 2 C2.01 1.67 1.02 1.34 0 1 C0 0.67 0 0.34 0 0 Z " fill="#0F5182" transform="translate(285,65)"/>
<path d="M0 0 C2.31 0.33 4.62 0.66 7 1 C7.33 2.32 7.66 3.64 8 5 C5.03 4.67 2.06 4.34 -1 4 C-0.67 2.68 -0.34 1.36 0 0 Z " fill="#186399" transform="translate(159,22)"/>
<path d="M0 0 C0.66 0.33 1.32 0.66 2 1 C1.54625 1.7425 1.0925 2.485 0.625 3.25 C-0.68640796 5.46930578 -1.88280803 7.67967822 -3 10 C-6 6.25 -6 6.25 -6 4 C-4.36368108 2.95107762 -2.69514137 1.95093297 -1 1 C-0.67 0.67 -0.34 0.34 0 0 Z " fill="#0C5C88" transform="translate(205,69)"/>
<path d="M0 0 C0.66 0.33 1.32 0.66 2 1 C0.02 1.99 0.02 1.99 -2 3 C-2 3.99 -2 4.98 -2 6 C-2.66 6 -3.32 6 -4 6 C-4 6.66 -4 7.32 -4 8 C-4.66 8 -5.32 8 -6 8 C-6.33 8.66 -6.66 9.32 -7 10 C-7 6 -7 6 -5.46875 4.296875 C-4.8190625 3.78640625 -4.169375 3.2759375 -3.5 2.75 C-2.8503125 2.22921875 -2.200625 1.7084375 -1.53125 1.171875 C-0.77328125 0.59179688 -0.77328125 0.59179688 0 0 Z " fill="#DAF2F7" transform="translate(59,57)"/>
<path d="M0 0 C4.95 0 9.9 0 15 0 C15 0.33 15 0.66 15 1 C10.545 1.495 10.545 1.495 6 2 C6 2.99 6 3.98 6 5 C5.01 4.67 4.02 4.34 3 4 C3 3.34 3 2.68 3 2 C2.01 1.34 1.02 0.68 0 0 Z " fill="#DAF1F8" transform="translate(33,79)"/>
<path d="M0 0 C3.34373475 0.55728913 6.03312999 1.35173889 9 3 C8.67 3.66 8.34 4.32 8 5 C6.35 4.67 4.7 4.34 3 4 C3 3.34 3 2.68 3 2 C2.01 2 1.02 2 0 2 C0 1.34 0 0.68 0 0 Z " fill="#08628C" transform="translate(293,73)"/>
<path d="M0 0 C-0.99 1.485 -0.99 1.485 -2 3 C-5.625 3.1875 -5.625 3.1875 -9 3 C-9 3.66 -9 4.32 -9 5 C-9.66 5 -10.32 5 -11 5 C-10.67 3.68 -10.34 2.36 -10 1 C-6.61981469 -0.04005702 -3.5219721 -0.08004482 0 0 Z " fill="#1F719B" transform="translate(225,50)"/>
<path d="M0 0 C0.99 0 1.98 0 3 0 C3.66 0.99 4.32 1.98 5 3 C5.99 3.33 6.98 3.66 8 4 C8.33 5.98 8.66 7.96 9 10 C8.34 10 7.68 10 7 10 C5.61558 8.03501678 4.28796166 6.02951535 3 4 C2.01133494 2.65824027 1.0161846 1.32103998 0 0 Z " fill="#0F517E" transform="translate(82,58)"/>
<path d="M0 0 C0.33 0 0.66 0 1 0 C1.144375 1.134375 1.28875 2.26875 1.4375 3.4375 C1.61171478 6.80777201 1.61171478 6.80777201 3 8 C3.04063832 9.66617115 3.042721 11.33388095 3 13 C2.01 13.495 2.01 13.495 1 14 C0.855625 13.21625 0.71125 12.4325 0.5625 11.625 C0.12201075 9.03578982 0.12201075 9.03578982 -1 7 C-1.125 3.9375 -1.125 3.9375 -1 1 C-0.67 0.67 -0.34 0.34 0 0 Z " fill="#E7F7F9" transform="translate(10,70)"/>
<path d="M0 0 C1.98 0.66 3.96 1.32 6 2 C5.01 3.485 5.01 3.485 4 5 C1.375 5.1875 1.375 5.1875 -1 5 C-1.33 4.34 -1.66 3.68 -2 3 C-1.34 3 -0.68 3 0 3 C0 2.01 0 1.02 0 0 Z " fill="#C4E2EA" transform="translate(207,44)"/>
<path d="M0 0 C3.21852831 0.63065757 5.50801069 1.78020695 8.25 3.5625 C8.95640625 4.01753906 9.6628125 4.47257812 10.390625 4.94140625 C11.18726563 5.46541016 11.18726563 5.46541016 12 6 C11.01 6.495 11.01 6.495 10 7 C7.6171875 6.00390625 7.6171875 6.00390625 4.875 4.5625 C3.96492187 4.08941406 3.05484375 3.61632813 2.1171875 3.12890625 C1.41851562 2.75636719 0.71984375 2.38382813 0 2 C0 1.34 0 0.68 0 0 Z " fill="#2F5879" transform="translate(198,38)"/>
<path d="M0 0 C0.66 0 1.32 0 2 0 C2 0.66 2 1.32 2 2 C2.99 2.33 3.98 2.66 5 3 C1.12315913 4.19287411 -1.91621923 5 -6 5 C-6 4.34 -6 3.68 -6 3 C-3 2 -3 2 0 3 C0 2.01 0 1.02 0 0 Z " fill="#08567E" transform="translate(93,27)"/>
<path d="M0 0 C0.66 0.33 1.32 0.66 2 1 C2 1.66 2 2.32 2 3 C3.65 3.33 5.3 3.66 7 4 C3.46905698 5.20220203 0.87101018 4.79532349 -2.75 4.0625 C-3.73484375 3.86785156 -4.7196875 3.67320313 -5.734375 3.47265625 C-6.48203125 3.31667969 -7.2296875 3.16070313 -8 3 C-8 2.67 -8 2.34 -8 2 C-6.865625 1.855625 -5.73125 1.71125 -4.5625 1.5625 C-1.19222799 1.38828522 -1.19222799 1.38828522 0 0 Z " fill="#CDECF6" transform="translate(153,17)"/>
<path d="M0 0 C5.75 1.75 5.75 1.75 8 4 C3.82412255 5.39195915 1.86525224 3.82323219 -2 2 C-1.34 1.34 -0.68 0.68 0 0 Z " fill="#1C527E" transform="translate(191,34)"/>
<path d="M0 0 C-6.4 3.07692308 -6.4 3.07692308 -9.4375 2.6875 C-9.953125 2.460625 -10.46875 2.23375 -11 2 C-7.75267347 -1.24732653 -4.25451414 -1.41817138 0 0 Z " fill="#095283" transform="translate(80,34)"/>
<path d="M0 0 C-2.55068845 2.35448165 -3.71017358 2.98327924 -7.25 3.1875 C-8.1575 3.125625 -9.065 3.06375 -10 3 C-4.375 -1.3125 -4.375 -1.3125 0 0 Z " fill="#02619A" transform="translate(111,23)"/>
<path d="M0 0 C3.96 0 7.92 0 12 0 C12 0.33 12 0.66 12 1 C10.02 1 8.04 1 6 1 C6 1.66 6 2.32 6 3 C3.03 2.505 3.03 2.505 0 2 C0 1.34 0 0.68 0 0 Z " fill="#034E82" transform="translate(123,19)"/>
<path d="M0 0 C2.31 0.66 4.62 1.32 7 2 C4.42786866 3.61949011 3.32330841 4.04408751 0.25 3.625 C-0.4925 3.41875 -1.235 3.2125 -2 3 C-1.34 2.01 -0.68 1.02 0 0 Z " fill="#056996" transform="translate(54,36)"/>
<path d="M0 0 C4.28324091 2.51407619 6.64531705 4.12314139 8 9 C7.01 8.34 6.02 7.68 5 7 C5 6.34 5 5.68 5 5 C4.360625 4.731875 3.72125 4.46375 3.0625 4.1875 C1 3 1 3 0 0 Z " fill="#D6F5FA" transform="translate(227,66)"/>
<path d="M0 0 C2.64 0 5.28 0 8 0 C7.01 0.33 6.02 0.66 5 1 C5 1.66 5 2.32 5 3 C3.35 3 1.7 3 0 3 C0 2.01 0 1.02 0 0 Z " fill="#156391" transform="translate(237,53)"/>
<path d="M0 0 C1.41623216 -0.05447047 2.83308191 -0.09300508 4.25 -0.125 C5.03890625 -0.14820313 5.8278125 -0.17140625 6.640625 -0.1953125 C9.20731941 0.0171622 10.7916067 0.71345895 13 2 C10.69 2.33 8.38 2.66 6 3 C6 2.34 6 1.68 6 1 C4.02 1 2.04 1 0 1 C0 0.67 0 0.34 0 0 Z " fill="#115884" transform="translate(206,49)"/>
<path d="M0 0 C-1.75 2.0625 -1.75 2.0625 -4 4 C-6.25 3.75 -6.25 3.75 -8 3 C-8 2.34 -8 1.68 -8 1 C-5.29120665 -0.35439668 -2.99066732 -0.06501451 0 0 Z " fill="#0B5683" transform="translate(85,26)"/>
<path d="M0 0 C0.99 0.33 1.98 0.66 3 1 C3 1.99 3 2.98 3 4 C3.99 4.33 4.98 4.66 6 5 C5.01 6.485 5.01 6.485 4 8 C2.35 5.69 0.7 3.38 -1 1 C-0.67 0.67 -0.34 0.34 0 0 Z " fill="#D3F1FA" transform="translate(298,70)"/>
<path d="M0 0 C2.50037734 2.17424117 3.43628586 3.73045798 4 7 C2.0625 6.25 2.0625 6.25 0 5 C-0.8125 2.9375 -0.8125 2.9375 -1 1 C-0.67 0.67 -0.34 0.34 0 0 Z " fill="#DEF1F7" transform="translate(86,63)"/>
<path d="M0 0 C-0.639375 0.103125 -1.27875 0.20625 -1.9375 0.3125 C-2.9584375 0.6528125 -2.9584375 0.6528125 -4 1 C-4.33 1.99 -4.66 2.98 -5 4 C-7.0625 5.1875 -7.0625 5.1875 -9 6 C-5.14285714 -1.71428571 -5.14285714 -1.71428571 0 0 Z " fill="#166E9C" transform="translate(267,59)"/>
<path d="M0 0 C0.99 0 1.98 0 3 0 C2.34 3.96 1.68 7.92 1 12 C0.67 12 0.34 12 0 12 C0 8.04 0 4.08 0 0 Z " fill="#266696" transform="translate(14,39)"/>
<path d="M0 0 C-0.33 0.99 -0.66 1.98 -1 3 C-3.97 3 -6.94 3 -10 3 C-4 0 -4 0 0 0 Z " fill="#C4E5F0" transform="translate(79,35)"/>
<path d="M0 0 C1.65 0.33 3.3 0.66 5 1 C5 1.66 5 2.32 5 3 C3.02 3.33 1.04 3.66 -1 4 C-0.67 2.68 -0.34 1.36 0 0 Z " fill="#0F548C" transform="translate(177,28)"/>
<path d="M0 0 C0.99 0 1.98 0 3 0 C3 1.98 3 3.96 3 6 C2.67 5.34 2.34 4.68 2 4 C1.01 4 0.02 4 -1 4 C-0.67 2.68 -0.34 1.36 0 0 Z " fill="#E3FBFC" transform="translate(9,61)"/>
<path d="M0 0 C0.99 0.33 1.98 0.66 3 1 C2.67 2.32 2.34 3.64 2 5 C0.68 4.67 -0.64 4.34 -2 4 C-1.34 2.68 -0.68 1.36 0 0 Z " fill="#EEF4F2" transform="translate(51,44)"/>
</svg>
